<svg width="30" height="30" viewBox="0 0 30 30" fill="none" xmlns="http://www.w3.org/2000/svg">
<path d="M9.43227 7.93213H3.35935C2.84373 7.93213 2.42706 7.51546 2.42706 6.99984C2.42706 6.48942 2.84373 6.07275 3.35935 6.07275H9.43227C9.94789 6.07275 10.3646 6.48942 10.3646 6.99984C10.3646 7.51546 9.94789 7.93213 9.43227 7.93213Z" fill="#3FA481"/>
<path d="M3.35935 7.93213C2.84373 7.93213 2.42706 7.51546 2.42706 6.99984V0.932292C2.42706 0.416667 2.84373 0 3.35935 0C3.87498 0 4.29165 0.416667 4.29165 0.932292V7C4.29165 7.51563 3.87498 7.93213 3.35935 7.93213Z" fill="#3FA481"/>
<path d="M3.38019 7.93229C3.2031 7.93229 3.0156 7.88021 2.85935 7.77083C2.43227 7.47917 2.32289 6.90104 2.61456 6.47396C5.39581 2.42188 9.98435 0 14.8958 0C15.4114 0 15.8281 0.416667 15.8281 0.932292C15.8281 1.44271 15.4114 1.85938 14.8958 1.85938C10.5989 1.85938 6.58331 3.97917 4.15102 7.53125C3.96873 7.79167 3.67706 7.93229 3.38019 7.93229Z" fill="#3FA481"/>
<path d="M14.8958 29.7917C6.68229 29.7917 0 23.1094 0 14.8958C0 14.3802 0.416666 13.9635 0.932292 13.9635C1.44271 13.9635 1.85938 14.3802 1.85938 14.8958C1.85938 22.0833 7.70833 27.9323 14.8958 27.9323C22.0833 27.9323 27.9323 22.0833 27.9323 14.8958C27.9323 7.70833 22.0833 1.85938 14.8958 1.85938C14.3802 1.85938 13.9635 1.44271 13.9635 0.932292C13.9635 0.416667 14.3802 0 14.8958 0C23.1094 0 29.7917 6.68229 29.7917 14.8958C29.7917 23.1094 23.1094 29.7917 14.8958 29.7917Z" fill="#3FA481"/>
<path d="M15.5052 16.4321C14.9896 16.4321 14.5729 16.0155 14.5729 15.505V6.99984C14.5729 6.48942 14.9896 6.07275 15.5052 6.07275C16.0156 6.07275 16.4323 6.48942 16.4323 6.99984V15.505C16.4323 16.0155 16.0156 16.4321 15.5052 16.4321Z" fill="#3FA481"/>
<path d="M22.7917 16.4321H15.5052C14.9896 16.4321 14.5729 16.0155 14.5729 15.505C14.5729 14.9894 14.9896 14.5728 15.5052 14.5728H22.7917C23.3073 14.5728 23.724 14.9894 23.724 15.505C23.724 16.0155 23.3073 16.4321 22.7917 16.4321Z" fill="#3FA481"/>
</svg>
