<svg width="34" height="34" viewBox="0 0 34 34" fill="none" xmlns="http://www.w3.org/2000/svg">
<mask id="mask0_272_95" style="mask-type:luminance" maskUnits="userSpaceOnUse" x="0" y="0" width="34" height="34">
<path d="M0 0H33.7396V33.7396H0V0Z" fill="white"/>
</mask>
<g mask="url(#mask0_272_95)">
<path d="M33.6771 16.8385C33.6771 26.1406 26.1354 33.6771 16.8385 33.6771C7.53646 33.6771 0 26.1406 0 16.8385C0 7.54167 7.53646 0 16.8385 0C26.1354 0 33.6771 7.54167 33.6771 16.8385Z" fill="#3FA481"/>
</g>
<path d="M22.8177 11.5156C22.8177 14.8333 20.1302 17.5208 16.8177 17.5208C13.5 17.5208 10.8125 14.8333 10.8125 11.5156C10.8125 8.20312 13.5 5.51562 16.8177 5.51562C20.1302 5.51562 22.8177 8.20312 22.8177 11.5156Z" fill="white"/>
<path d="M16.8177 32.8804C21.0625 32.8804 24.9427 31.3022 27.9063 28.7085C26.9844 22.7033 24.2813 18.5366 16.8177 18.5366C9.56254 18.5366 6.75525 22.7241 5.77087 28.7502C8.72921 31.3179 12.5886 32.8804 16.8177 32.8804Z" fill="white"/>
</svg>
